# xmcd CD database file
#
# Track frame offsets:
#	150
#	19532
#	40260
#	62057
#	84787
#	107252
#	127795
#	148542
#	178427
#	197425
#
# Disc length: 2960 seconds
#
# Revision: 0
# Processed by: cddbd v1.5PL3 Copyright (c) Steve Scherf et al.
# Submitted via: CDex 1.50beta10
#
DISCID=750b8e0a
DTITLE=中西圭三 - KEIZO〜かなわない夢もあった〜
DYEAR=1991
DGENRE=J-Pop
TTITLE0=タンジェリン・アイズ
TTITLE1=Brother Sun Sister Moon
TTITLE2=遠い夜明け
TTITLE3=Love Again
TTITLE4=彼方へ
TTITLE5=探偵
TTITLE6=ミッドナイト・コール
TTITLE7=夏の終わりのデッキシューズ
TTITLE8=空を泳ぐ想い
TTITLE9=Daisy
EXTD=YEAR: 1991
EXTT0=
EXTT1=
EXTT2=
EXTT3=
EXTT4=
EXTT5=
EXTT6=
EXTT7=
EXTT8=
EXTT9=
PLAYORDER=
